<?xml version="1.0" standalone="no"?>
<!DOCTYPE svg PUBLIC "-//W3C//DTD SVG 20010904//EN"
 "http://www.w3.org/TR/2001/REC-SVG-20010904/DTD/svg10.dtd">
<svg version="1.0" xmlns="http://www.w3.org/2000/svg"
 width="1520.000000pt" height="1558.000000pt" viewBox="0 0 1520.000000 1558.000000"
 preserveAspectRatio="xMidYMid meet">

<g transform="translate(0.000000,1558.000000) scale(0.100000,-0.100000)"
fill="#000000" stroke="none">
<path d="M5 15568 c-3 -7 -4 -3512 -3 -7788 l3 -7775 7595 0 7595 0 0 7785 0
7785 -7593 3 c-6069 2 -7594 0 -7597 -10z m8235 -1062 c1262 -131 2373 -556
3370 -1289 339 -249 764 -636 1020 -927 45 -52 95 -108 109 -125 63 -71 235
-290 323 -410 755 -1035 1189 -2236 1278 -3535 13 -188 13 -662 0 -865 -21
-331 -76 -720 -146 -1035 -181 -811 -508 -1580 -965 -2268 -365 -548 -804
-1037 -1314 -1462 -966 -804 -2155 -1328 -3395 -1495 -750 -100 -1518 -77
-2246 70 -980 197 -1889 601 -2694 1198 -111 82 -278 214 -300 237 -3 3 -26
22 -52 43 -108 87 -346 312 -523 497 -661 688 -1211 1604 -1504 2500 -84 259
-88 274 -140 478 -450 1780 -163 3656 797 5211 515 835 1224 1563 2047 2102
309 203 733 430 1057 567 689 292 1411 465 2173 521 192 15 923 6 1105 -13z"/>
<path d="M7227 14203 c-57 -2 -89 -8 -92 -16 -2 -7 -16 -136 -31 -287 -14
-151 -27 -276 -29 -278 -1 -2 -47 -8 -101 -13 -308 -31 -631 -94 -992 -193
-51 -14 -97 -26 -102 -26 -5 0 -37 46 -73 103 -89 143 -240 381 -243 386 -2 2
-35 -9 -73 -23 -39 -14 -104 -38 -143 -52 -108 -39 -357 -145 -490 -207 l-117
-56 14 -58 c7 -32 30 -134 50 -228 20 -93 43 -196 50 -227 15 -67 23 -57 -100
-123 -244 -132 -586 -364 -866 -589 l-56 -45 -214 179 c-118 99 -219 180 -226
180 -7 0 -36 -21 -65 -46 -85 -74 -393 -380 -490 -486 l-88 -98 58 -72 c283
-351 303 -378 290 -396 -7 -10 -47 -60 -89 -112 -181 -227 -389 -539 -529
-793 -39 -70 -58 -96 -69 -93 -137 40 -556 135 -559 127 -2 -6 -23 -50 -46
-98 -126 -258 -307 -718 -289 -733 5 -4 117 -71 251 -150 133 -78 242 -143
242 -144 0 -2 -11 -40 -25 -87 -88 -290 -163 -656 -199 -973 -9 -71 -17 -130
-18 -131 -2 -2 -128 -14 -281 -27 -172 -16 -283 -30 -290 -37 -9 -9 -12 -128
-12 -476 0 -255 3 -466 7 -470 3 -3 133 -14 287 -23 270 -15 282 -17 286 -36
2 -12 9 -70 15 -131 33 -317 116 -735 202 -1018 11 -38 17 -72 12 -76 -5 -5
-117 -68 -249 -141 -132 -74 -242 -135 -244 -137 -18 -14 298 -793 340 -837 9
-10 60 1 374 86 99 26 183 48 187 48 3 0 27 -39 53 -87 45 -84 110 -193 196
-333 74 -119 233 -343 337 -474 56 -72 101 -134 100 -138 -2 -4 -79 -96 -172
-205 -93 -109 -175 -205 -182 -213 -16 -19 19 -62 206 -260 118 -125 419 -411
439 -418 5 -2 110 78 232 176 l223 180 71 -57 c275 -222 569 -422 855 -581 63
-35 116 -65 118 -66 3 -2 -120 -468 -144 -546 -5 -18 24 -34 236 -130 192 -87
572 -231 597 -226 8 2 40 53 72 113 127 245 203 385 207 385 2 0 84 -22 182
-49 343 -95 687 -160 984 -186 l76 -7 6 -82 c4 -44 10 -172 15 -284 4 -111 11
-206 15 -210 12 -12 953 -9 965 3 6 6 23 137 38 292 l27 282 56 6 c161 19 363
49 503 76 166 31 499 114 602 148 33 11 65 21 71 21 6 0 57 -82 114 -182 155
-274 180 -318 185 -318 2 0 75 27 162 59 199 74 338 134 526 224 112 54 146
74 142 86 -11 37 -133 489 -139 517 -7 30 -6 31 115 100 266 151 535 333 774
525 121 97 139 108 154 96 9 -7 77 -67 151 -133 193 -169 251 -219 261 -222
25 -10 638 605 657 659 2 5 -74 102 -170 216 -95 114 -177 213 -181 220 -6 9
14 42 60 101 216 275 436 609 568 865 28 53 55 97 60 97 6 0 125 -38 265 -85
140 -47 261 -85 268 -85 11 0 42 59 122 235 79 175 237 591 227 601 -1 1 -34
22 -73 46 -39 24 -150 92 -246 152 l-175 110 24 85 c83 297 155 660 188 961 9
80 17 146 18 146 1 1 130 17 287 36 l285 34 7 84 c14 190 4 839 -14 855 -2 1
-129 12 -283 24 -164 13 -282 26 -286 32 -3 6 -9 45 -13 88 -25 279 -126 778
-210 1041 -13 41 -22 78 -20 81 2 3 45 28 96 54 147 75 403 208 407 211 4 4
-47 150 -104 299 -88 227 -238 555 -254 555 -6 0 -124 -31 -263 -69 -139 -38
-262 -71 -273 -73 -16 -3 -31 16 -79 102 -159 284 -364 587 -563 833 -35 43
-63 80 -63 83 0 6 17 29 135 179 39 50 103 132 143 183 l73 93 -48 57 c-142
168 -578 588 -607 586 -7 -1 -112 -76 -234 -168 -122 -91 -226 -166 -231 -166
-6 0 -25 13 -43 28 -174 151 -543 401 -823 558 -117 65 -154 91 -151 103 37
124 135 545 129 551 -15 14 -276 131 -433 195 -220 88 -382 142 -387 129 -2
-6 -48 -90 -102 -185 -54 -96 -115 -204 -135 -241 -20 -38 -40 -68 -44 -68 -4
0 -41 11 -82 24 -257 82 -656 163 -1000 202 -80 9 -145 17 -146 17 0 1 -17
130 -38 287 -20 156 -39 287 -42 289 -6 6 -686 10 -807 4z m355 -885 l3 -593
145 -12 c778 -61 1521 -252 2140 -549 237 -114 361 -185 585 -333 1124 -743
1847 -2001 2029 -3526 37 -308 41 -386 41 -770 -1 -352 -3 -405 -23 -545 -98
-669 -317 -1243 -689 -1810 -777 -1182 -2058 -2015 -3445 -2240 -178 -29 -383
-49 -578 -56 l-170 -7 0 -589 0 -588 -189 0 -188 0 -11 83 c-5 45 -21 170 -33
278 l-23 195 -206 42 c-113 22 -409 82 -658 133 -249 50 -454 90 -456 88 -1
-2 -48 -89 -103 -194 -56 -104 -111 -209 -124 -232 -12 -24 -28 -43 -34 -43
-6 0 -126 45 -266 101 -140 55 -288 114 -330 130 l-77 31 13 46 c7 26 39 135
70 242 79 267 78 240 8 287 -71 49 -1001 650 -1030 667 -7 4 -35 -10 -65 -32
-215 -158 -380 -273 -386 -267 -4 4 -116 113 -249 242 -134 130 -243 239 -243
243 0 4 74 106 164 226 l164 219 -21 35 c-12 19 -67 105 -122 190 -56 85 -211
325 -345 533 -133 207 -248 377 -255 377 -7 0 -86 -22 -176 -49 -264 -79 -350
-103 -353 -99 -2 1 -13 28 -24 58 -11 30 -68 172 -126 315 -58 142 -102 262
-98 265 5 3 51 32 103 64 52 33 137 86 189 119 52 33 105 66 118 74 12 7 22
22 22 33 0 10 -27 160 -61 332 -33 172 -69 358 -79 413 -11 55 -33 170 -49
255 -17 85 -36 188 -44 228 -8 40 -17 75 -20 78 -3 4 -120 11 -259 16 -139 5
-259 11 -265 13 -10 3 -13 87 -13 374 l0 369 23 5 c12 3 134 11 270 18 140 7
254 17 261 23 11 10 227 1258 226 1307 0 10 -57 49 -153 104 -245 142 -317
187 -317 194 0 4 21 57 46 117 25 60 51 125 58 144 17 45 157 384 161 388 2 3
84 -20 479 -137 84 -24 90 -25 100 -8 6 10 56 89 110 175 54 86 131 209 171
272 40 63 110 176 157 250 47 74 125 198 173 275 l87 140 -18 33 c-11 17 -79
111 -152 207 -74 96 -132 179 -130 184 1 5 86 96 188 203 102 106 208 216 235
245 l50 52 225 -159 c124 -88 229 -160 233 -160 5 0 117 74 250 163 133 90
368 248 522 352 154 103 289 195 299 205 18 18 18 20 -3 102 -35 136 -108 414
-115 435 -6 18 14 29 171 96 378 161 465 197 476 197 7 0 68 -106 137 -235 69
-129 129 -235 134 -235 9 0 677 111 1105 184 112 19 207 40 211 46 4 6 17 115
29 243 12 127 25 249 28 270 l6 37 178 0 179 0 2 -592z"/>
<path d="M7290 12713 c-110 -8 -327 -36 -460 -59 -1367 -234 -2610 -1031
-3355 -2149 -541 -814 -805 -1704 -805 -2719 0 -661 100 -1241 314 -1811 65
-175 96 -246 172 -401 346 -706 859 -1293 1524 -1745 198 -135 490 -305 650
-377 36 -16 106 -48 155 -70 463 -210 1034 -374 1570 -451 165 -24 397 -51
443 -51 l32 0 0 718 c0 394 -3 761 -7 814 l-6 98 -59 0 -58 0 0 -215 0 -216
-142 3 -143 3 -3 189 c-3 217 -6 226 -76 226 -74 -1 -77 -7 -97 -217 -11 -103
-23 -189 -28 -192 -5 -3 -90 -5 -190 -3 l-181 3 0 189 c0 209 -3 220 -63 220
-68 -1 -68 0 -102 -362 l-7 -68 -194 0 -194 0 0 147 0 147 76 280 c42 155 106
387 142 516 85 310 86 361 3 359 -61 -2 -78 -12 -125 -76 -100 -137 -230 -205
-416 -220 -206 -16 -427 67 -555 209 -82 91 -105 135 -105 202 0 88 -28 262
-56 344 -26 78 -85 197 -164 332 -130 221 -155 400 -77 555 14 28 69 111 122
185 54 74 103 147 110 161 47 89 65 544 32 756 -14 85 -25 119 -70 210 -192
382 -288 746 -304 1148 -19 495 107 954 369 1343 121 180 350 426 523 564 511
405 1126 620 1923 674 l102 7 0 403 0 404 -87 -2 c-49 -1 -108 -3 -133 -5z"/>
<path d="M7580 9124 l0 -2809 73 -62 c160 -133 274 -347 333 -623 24 -112 26
-341 4 -385 -21 -42 -61 -45 -98 -8 -52 52 -131 213 -198 403 -27 79 -47 95
-75 61 -18 -22 -19 -44 -19 -602 l0 -579 50 0 50 0 0 -230 0 -230 195 0 195 0
0 195 c0 210 5 236 50 255 35 15 96 -9 109 -42 8 -19 62 -364 61 -390 0 -5 81
-8 179 -8 l180 0 3 191 3 191 28 24 c16 13 41 24 57 24 16 0 41 -11 57 -24
l28 -24 3 -191 3 -191 190 0 191 0 -4 178 -4 177 -127 467 c-151 558 -150 550
-138 582 26 66 88 38 310 -136 206 -162 231 -173 360 -165 229 13 446 152 572
366 35 60 37 65 43 194 15 281 32 359 100 447 23 30 60 84 82 120 21 36 57 90
80 121 57 79 67 125 62 266 -5 118 -36 279 -64 335 -8 15 -65 72 -128 128
l-115 101 -17 72 c-12 49 -19 125 -22 238 -4 191 17 348 68 504 266 819 268
825 291 1049 15 148 7 461 -16 601 -32 202 -81 380 -162 585 -83 210 -300 509
-548 755 -554 551 -1221 822 -2147 871 l-128 7 0 -2809z m2053 -1845 c263
-132 394 -289 413 -497 7 -72 -7 -183 -32 -259 -40 -124 -139 -299 -253 -451
l-55 -72 -100 0 c-602 0 -1150 127 -1578 365 -111 62 -113 64 -110 97 1 18 20
70 43 116 31 63 52 92 89 121 54 43 50 41 325 137 422 146 716 276 1049 462
62 34 112 29 209 -19z"/>
<path d="M5575 7274 c-125 -65 -191 -111 -263 -188 -99 -106 -142 -211 -142
-347 0 -178 62 -340 223 -576 38 -57 82 -117 98 -134 l30 -32 197 7 c624 22
1095 143 1516 388 67 40 68 41 63 75 -9 51 -59 153 -97 196 -48 55 -95 79
-300 150 -256 89 -401 145 -568 216 -156 67 -435 204 -523 257 -80 48 -119 46
-234 -12z"/>
<path d="M7490 6158 c-202 -229 -280 -437 -280 -743 0 -148 33 -225 98 -225
39 0 70 46 102 154 60 197 93 281 142 353 l28 42 0 250 c0 138 -4 251 -8 251
-5 0 -42 -37 -82 -82z"/>
</g>
</svg>
